<?xml version="1.0" encoding="UTF-8"?>
<svg width="62px" height="62px" viewBox="0 0 62 62" version="1.1" xmlns="http://www.w3.org/2000/svg" xmlns:xlink="http://www.w3.org/1999/xlink">
    <!-- Generator: Sketch 49.1 (51147) - http://www.bohemiancoding.com/sketch -->
    <title>钻石</title>
    <desc>Created with Sketch.</desc>
    <defs></defs>
    <g id="Page-1" stroke="none" stroke-width="1" fill="none" fill-rule="evenodd">
        <g id="添洛官网_首页" transform="translate(-929.000000, -758.000000)">
            <g id="钻石" transform="translate(930.000000, 759.000000)">
                <circle id="Oval-Copy" stroke="#F0983C" cx="30" cy="30" r="30"></circle>
                <path d="M21.8378888,29.5865071 L38.6145146,29.5103373 L30.5466541,50 L21.8378888,29.5865071 Z M23.7606032,22.1599564 L36.5409991,22.2742111 L38.803016,27.2633297 L22.2148916,27.149075 L23.7606032,22.1599564 Z M20.1036758,26.9967356 L10,22.7312295 L15.4288407,18.6561479 L21.9132893,22.0457018 L20.1036758,26.9967356 Z M10,25.2067464 L19.5758718,29.5103373 L29.868049,49.8476605 L10,25.2067464 Z M41.0273327,29.4722524 L50,24.7878128 L31.1121583,49.7334059 L41.0273327,29.4722524 Z M40.8388313,26.9586507 L38.3129123,21.7029379 L44.0810556,18.4657236 L49.057493,22.6931447 L40.8388313,26.9586507 Z M23.5721018,19.6463547 L21.3854854,19.0750816 L17.2761546,16.7519042 L22.1017908,15 L37.860509,15 L42.6484449,17.0184984 L38.0490104,19.265506 L36.5032988,19.6463547 L23.5721018,19.6463547 Z" id="Shape" fill="#F0983C" fill-rule="nonzero"></path>
            </g>
        </g>
    </g>
</svg>