<?xml version="1.0" encoding="UTF-8"?>
<svg width="62px" height="62px" viewBox="0 0 62 62" version="1.1" xmlns="http://www.w3.org/2000/svg" xmlns:xlink="http://www.w3.org/1999/xlink">
    <!-- Generator: Sketch 49.1 (51147) - http://www.bohemiancoding.com/sketch -->
    <title>质量</title>
    <desc>Created with Sketch.</desc>
    <defs></defs>
    <g id="Page-1" stroke="none" stroke-width="1" fill="none" fill-rule="evenodd">
        <g id="添洛官网_首页" transform="translate(-1309.000000, -758.000000)">
            <g id="质量" transform="translate(1310.000000, 759.000000)">
                <circle id="Oval-Copy-2" stroke="#F0983C" cx="30" cy="30" r="30"></circle>
                <path d="M35.7265537,30.4010695 C35.7265537,32.0828877 34.940113,33.5668449 33.7276836,34.5231729 L31.9581921,32.7424242 L30.0903955,34.6221034 L31.1062147,35.644385 C30.9096045,35.6773619 30.680226,35.6773619 30.4836158,35.6773619 C27.6,35.6773619 25.240678,33.3030303 25.240678,30.4010695 C25.240678,27.4991087 27.6,25.1247772 30.4836158,25.1247772 C33.3672316,25.1247772 35.7265537,27.4991087 35.7265537,30.4010695 Z M45,18.7272727 L45,28.8181818 C45,38.1506239 38.8067797,46.8565062 30.5163842,49 C22.1932203,46.8894831 16,38.1506239 16,28.8181818 L16,18.7272727 L30.5163842,12 L45,18.7272727 Z M35.5954802,36.402852 C37.2666667,34.9518717 38.3480226,32.8083779 38.3480226,30.4010695 C38.3480226,26.0151515 34.8418079,22.486631 30.4836158,22.486631 C26.1254237,22.486631 22.619209,26.0481283 22.619209,30.4010695 C22.619209,34.7540107 26.1254237,38.315508 30.4836158,38.315508 C31.4666667,38.315508 32.3841808,38.1176471 33.2689266,37.8208556 L35.6610169,40.228164 L37.5288136,38.3484848 L35.5954802,36.402852 Z" id="Shape" fill="#F0983C" fill-rule="nonzero"></path>
            </g>
        </g>
    </g>
</svg>