<?xml version="1.0" encoding="UTF-8"?>
<svg width="21px" height="25px" viewBox="0 0 21 25" version="1.1" xmlns="http://www.w3.org/2000/svg" xmlns:xlink="http://www.w3.org/1999/xlink">
    <!-- Generator: Sketch 49.1 (51147) - http://www.bohemiancoding.com/sketch -->
    <title>消息</title>
    <desc>Created with Sketch.</desc>
    <defs></defs>
    <g id="Page-1" stroke="none" stroke-width="1" fill="none" fill-rule="evenodd">
        <g id="添洛官网_首页" transform="translate(-399.000000, -397.000000)" fill="#C9C9C9" fill-rule="nonzero">
            <g id="消息" transform="translate(399.000000, 397.000000)">
                <path d="M19.7715838,18.1229981 C19.9932028,18.1165919 20.2148218,18.161435 20.4269429,18.3023703 C19.6576083,17.8026906 19.1510505,16.9314542 19.1510505,15.9352979 L19.1510505,10.3779628 C19.1510505,6.30685458 16.2415092,2.90839206 12.3536781,2.07238949 L12.3536781,1.87379885 C12.3536781,0.836002562 11.5241897,0 10.5015762,0 C9.47896266,0 8.64947428,0.839205637 8.64947428,1.87379885 L8.64947428,2.07238949 C4.76164324,2.90839206 1.85210192,6.30365151 1.85210192,10.3779628 L1.85210192,15.9352979 C1.85210192,16.9314542 1.34237815,17.8026906 0.576209487,18.3023703 C0.791496548,18.161435 1.0099496,18.1133889 1.23156863,18.1229981 C0.550881598,18.1262012 0,18.6803331 0,19.3721973 C0,20.0640615 0.550881598,20.6213965 1.23473462,20.6213965 L19.7652518,20.6213965 C20.4491048,20.6213965 20.9999864,20.0640615 20.9999864,19.3721973 C21.0031524,18.6867393 20.4522708,18.1262012 19.7715838,18.1229981 Z M10.5047422,25 C12.2112087,25 13.5947447,23.6002562 13.5947447,21.8737988 L7.41473967,21.8737988 C7.41473967,23.6002562 8.79510965,25 10.5047422,25 Z" id="Shape"></path>
            </g>
        </g>
    </g>
</svg>