<?xml version="1.0" encoding="UTF-8"?>
<svg width="62px" height="62px" viewBox="0 0 62 62" version="1.1" xmlns="http://www.w3.org/2000/svg" xmlns:xlink="http://www.w3.org/1999/xlink">
    <!-- Generator: Sketch 49.1 (51147) - http://www.bohemiancoding.com/sketch -->
    <title>团队 </title>
    <desc>Created with Sketch.</desc>
    <defs></defs>
    <g id="Page-1" stroke="none" stroke-width="1" fill="none" fill-rule="evenodd">
        <g id="添洛官网_首页" transform="translate(-549.000000, -758.000000)">
            <g id="团队-" transform="translate(550.000000, 759.000000)">
                <circle id="Oval" stroke="#F0983C" cx="30" cy="30" r="30"></circle>
                <path d="M16.5072464,31.1940298 C14.552174,31.1940298 12.9666378,32.7833731 12.9666378,34.7443731 C12.9666378,36.7048208 14.5516232,38.2947164 16.5072464,38.2947164 C18.4628696,38.2947164 20.0478551,36.7053731 20.0478551,34.7443731 C20.0478551,32.7833731 18.4623189,31.1940298 16.5072464,31.1940298 Z M22.0144928,43.4222537 C22.0144928,41.2436717 20.2532754,39.4776119 18.0806667,39.4776119 L14.9338261,39.4776119 C12.7612174,39.4776119 11,41.2436716 11,43.4222537 L11,45 L22.0144928,45 L22.0144928,43.4222537 Z M16.5072464,31.1940298 C14.552174,31.1940298 12.9666378,32.7833731 12.9666378,34.7443731 C12.9666378,36.7048208 14.5516232,38.2947164 16.5072464,38.2947164 C18.4628696,38.2947164 20.0478551,36.7053731 20.0478551,34.7443731 C20.0478551,32.7833731 18.4623189,31.1940298 16.5072464,31.1940298 Z M22.0144928,43.4222537 C22.0144928,41.2436717 20.2532754,39.4776119 18.0806667,39.4776119 L14.9338261,39.4776119 C12.7612174,39.4776119 11,41.2436716 11,43.4222537 L11,45 L22.0144928,45 L22.0144928,43.4222537 Z M29.7246377,8 C27.7695652,8 26.184029,9.58934326 26.184029,11.5503433 C26.184029,13.5113433 27.7690145,15.1006865 29.7246377,15.1006865 C31.6802609,15.1006865 33.2652463,13.5113433 33.2652463,11.5503433 C33.2652463,9.58934326 31.6797101,8 29.7246377,8 Z M35.2318841,20.2282239 C35.2318841,18.0496418 33.4706667,16.2835821 31.298058,16.2835821 L28.1512174,16.2835821 C25.9786087,16.2835821 24.2173913,18.0496417 24.2173913,20.2282239 L24.2173913,21.8059701 L35.2318841,21.8059701 L35.2318841,20.2282239 Z M29.7246377,8 C27.7695652,8 26.184029,9.58934326 26.184029,11.5503433 C26.184029,13.5113433 27.7690145,15.1006865 29.7246377,15.1006865 C31.6802609,15.1006865 33.2652463,13.5113433 33.2652463,11.5503433 C33.2652463,9.58934326 31.6797101,8 29.7246377,8 Z M35.2318841,20.2282239 C35.2318841,18.0496418 33.4706667,16.2835821 31.298058,16.2835821 L28.1512174,16.2835821 C25.9786087,16.2835821 24.2173913,18.0496417 24.2173913,20.2282239 L24.2173913,21.8059701 L35.2318841,21.8059701 L35.2318841,20.2282239 Z M43.4927536,31.1940298 C41.5376812,31.1940298 39.9521449,32.7833731 39.9521449,34.7443731 C39.9521449,36.7048208 41.5371304,38.2947164 43.4927536,38.2947164 C45.4483768,38.2947164 47.0333623,36.7053731 47.0333623,34.7443731 C47.0333623,32.7833731 45.4478261,31.1940298 43.4927536,31.1940298 Z M49,43.4222537 C49,41.2436717 47.2387826,39.4776119 45.0661739,39.4776119 L41.9193333,39.4776119 C39.7467247,39.4776119 37.9855072,41.2436716 37.9855072,43.4222537 L37.9855072,45 L49,45 L49,43.4222537 Z M43.4927536,31.1940298 C41.5376812,31.1940298 39.9521449,32.7833731 39.9521449,34.7443731 C39.9521449,36.7048208 41.5371304,38.2947164 43.4927536,38.2947164 C45.4483768,38.2947164 47.0333623,36.7053731 47.0333623,34.7443731 C47.0333623,32.7833731 45.4478261,31.1940298 43.4927536,31.1940298 Z M49,43.4222537 C49,41.2436717 47.2387826,39.4776119 45.0661739,39.4776119 L41.9193333,39.4776119 C39.7467247,39.4776119 37.9855072,41.2436716 37.9855072,43.4222537 L37.9855072,45 L49,45 L49,43.4222537 Z M37.3929275,36.0261194 C37.137942,36.4690149 36.6747826,36.7164179 36.1995073,36.7164179 C35.9654493,36.7164179 35.7291884,36.6573284 35.5122029,36.5314179 L30,33.3405821 L24.4877971,36.5314179 C24.2713624,36.6573284 24.0345507,36.7164179 23.8004928,36.7164179 C23.3252174,36.7164179 22.862058,36.4690149 22.6070725,36.0261194 C22.2270725,35.366194 22.4528696,34.5212687 23.1109856,34.1402239 L28.6231885,30.9493881 L28.6231884,24.5671642 C28.6231884,23.8045224 29.2394493,23.1865672 30,23.1865672 C30.7605507,23.1865672 31.3768116,23.8045224 31.3768116,24.5671642 L31.3768116,30.9493881 L36.8890145,34.1402239 C37.5471304,34.5212686 37.7729275,35.366194 37.3929275,36.0261194 Z" id="Shape" fill="#F0983C" fill-rule="nonzero"></path>
            </g>
        </g>
    </g>
</svg>